<svg xmlns="http://www.w3.org/2000/svg" viewBox="0 0 50.04 22.04"><defs><style>.cls-1{fill:#666;}</style></defs><title>logo</title><g id="Ebene_2" data-name="Ebene 2"><g id="Ebene_1-2" data-name="Ebene 1"><path class="cls-1" d="M0,14.29A8.23,8.23,0,0,1,1.8,8.76,6.64,6.64,0,0,1,7.06,6.6a13,13,0,0,1,4.46,1.09v3.89H10.33a.46.46,0,0,1-.5-.4q0-.11-.12-1.11l-.09-1L9.2,9,8.81,8.9l-.26-.06a11.24,11.24,0,0,0-1.67-.11,4.1,4.1,0,0,0-1.62.37,3.69,3.69,0,0,0-1.41,1.09,6.62,6.62,0,0,0-1.13,4.1,6.65,6.65,0,0,0,1.19,4.16A3.83,3.83,0,0,0,7.1,19.91a5.1,5.1,0,0,0,3.29-1.17.84.84,0,0,1,.59-.22.54.54,0,0,1,.48.22l.71.91A6.66,6.66,0,0,1,6.59,22,6,6,0,0,1,1.92,20,8.23,8.23,0,0,1,0,14.29Z"/><path class="cls-1" d="M13.5,18.08A3.37,3.37,0,0,1,14,16.3a4.74,4.74,0,0,1,1.61-1.52,9.46,9.46,0,0,1,2.84-1.11,19.88,19.88,0,0,1,4.33-.4V12.14A3.85,3.85,0,0,0,22,9.55a2.81,2.81,0,0,0-2.23-.88,4.35,4.35,0,0,0-1.61.26A6.71,6.71,0,0,0,17,9.46c-.55.32-.84.5-.87.53a1.12,1.12,0,0,1-.68.23A.78.78,0,0,1,15,10.1a.83.83,0,0,1-.31-.36l-.48-.82A8.84,8.84,0,0,1,16.9,7.14a7.86,7.86,0,0,1,3.21-.6A5.49,5.49,0,0,1,22.35,7,4.87,4.87,0,0,1,24,8.1a4.69,4.69,0,0,1,1,1.78,7.54,7.54,0,0,1,.32,2.31v7.53c.87.18,1.36.3,1.49.33V20a.48.48,0,0,1,.31.19.58.58,0,0,1,.12.36v1.24H24.15a1.93,1.93,0,0,1-.62-.12c-.13,0-.22-.19-.29-.46l-.3-1.39-1.19.95a4.72,4.72,0,0,1-1.17.69,8.74,8.74,0,0,1-1.31.44,7.47,7.47,0,0,1-1.59.14,5.18,5.18,0,0,1-1.62-.26,3.78,3.78,0,0,1-1.34-.7,4,4,0,0,1-.88-1.24A4,4,0,0,1,13.5,18.08ZM16,18a2.64,2.64,0,0,0,.22,1,1.68,1.68,0,0,0,.52.72,2.38,2.38,0,0,0,.78.39,3.15,3.15,0,0,0,1,.15,5.45,5.45,0,0,0,1.24-.15,4.54,4.54,0,0,0,1.1-.39,5.6,5.6,0,0,0,1-.66,10.65,10.65,0,0,0,.88-.83V15.08a19.11,19.11,0,0,0-3.07.2,9.85,9.85,0,0,0-2.07.63,2.54,2.54,0,0,0-1.18.91A2.12,2.12,0,0,0,16,18Z"/><path class="cls-1" d="M28.94,21.84V20.58A.51.51,0,0,1,29.4,20l1.67-.34V2.16c-.92-.17-1.47-.28-1.67-.35a.51.51,0,0,1-.46-.54V0h4.79V19.67A13.83,13.83,0,0,1,35.4,20a.52.52,0,0,1,.47.55v1.26Z"/><path class="cls-1" d="M37.48,21.84V20.58a.51.51,0,0,1,.13-.35.55.55,0,0,1,.32-.2l1.72-.34V9c-1-.17-1.55-.28-1.72-.32a.58.58,0,0,1-.45-.56V6.84h4.77V19.69L44,20a.58.58,0,0,1,.32.2.56.56,0,0,1,.13.35v1.26ZM39.09,2.13a1.6,1.6,0,0,1,.14-.74,2.55,2.55,0,0,1,.42-.62,2,2,0,0,1,.59-.42A1.55,1.55,0,0,1,41,.2a1.52,1.52,0,0,1,.71.15,2,2,0,0,1,.59.42,2.09,2.09,0,0,1,.42.62,1.59,1.59,0,0,1,.18.74,1.56,1.56,0,0,1-.18.71,2,2,0,0,1-.42.59,2.4,2.4,0,0,1-.59.42A1.53,1.53,0,0,1,41,4a1.55,1.55,0,0,1-.71-.14,2.4,2.4,0,0,1-.59-.42,2.4,2.4,0,0,1-.42-.59A1.55,1.55,0,0,1,39.09,2.13Z"/><path class="cls-1" d="M46.42,20.23a2,2,0,0,1,.15-.71,1.45,1.45,0,0,1,.39-.59,2.17,2.17,0,0,1,.59-.41,2,2,0,0,1,1.42,0,2.07,2.07,0,0,1,.56.41,1.45,1.45,0,0,1,.39.59,2.19,2.19,0,0,1,0,1.43,1.54,1.54,0,0,1-1,.94,1.76,1.76,0,0,1-1.42,0,1.56,1.56,0,0,1-.59-.34,1.48,1.48,0,0,1-.39-.6,2.09,2.09,0,0,1-.15-.75Z"/></g></g></svg>