<svg version="1.1" xmlns="http://www.w3.org/2000/svg" viewBox="0 0 20 20"><title>hand point right</title><g class="nc-icon-wrapper" stroke-width="1"><path d="M19.97 8.84c0 0.98-0.81 1.77-1.81 1.78h-2.75c0.07 0.19 0.11 0.4 0.11 0.61 0 0.93-0.74 1.7-1.68 1.76 0.07 0.19 0.11 0.39 0.11 0.6 0 0.98-0.81 1.78-1.82 1.78h-0.16c0.06 0.17 0.09 0.35 0.09 0.54 0 0.99-0.81 1.79-1.81 1.79h-3.76c-0.79 0-1.83-0.38-2.76-0.72-0.6-0.22-1.28-0.46-1.54-0.46h-1.01a0.59 0.59 0 0 1 0-1.18h1.01c0.48 0 1.13 0.24 1.95 0.54 0.83 0.3 1.77 0.64 2.35 0.64h3.76a0.63 0.63 0 0 0 0.63-0.61c0-0.34-0.31-0.54-0.61-0.55a0.59 0.59 0 0 1 0.02-1.18h1.84c0.35 0 0.63-0.27 0.63-0.59 0-0.31-0.26-0.57-0.58-0.59a0.59 0.59 0 0 1 0.03-1.18h1.5c0.35 0 0.63-0.27 0.63-0.59a0.63 0.63 0 0 0-0.55-0.62 0.59 0.59 0 0 1 0.08-1.17h4.29c0.35 0 0.63-0.27 0.63-0.6 0-0.33-0.28-0.6-0.63-0.59h-7.3a0.59 0.59 0 0 1-0.4-1.03l1.43-1.31c0.54-0.54 0.44-0.71 0.34-0.88a0.65 0.65 0 0 0-0.87-0.23l-8.38 3.88a0.59 0.59 0 0 0-0.25 0.35 0.59 0.59 0 0 1-0.57 0.45h-0.98a0.59 0.59 0 0 1 0-1.18h0.59a1.77 1.77 0 0 1 0.67-0.67l8.38-3.88c0.82-0.46 1.93-0.17 2.43 0.67 0.68 1.13-0.2 2.01-0.54 2.34l-0.33 0.31h5.78c1 0 1.81 0.8 1.81 1.77z"/></g></svg>